<?xml version="1.0" encoding="utf-8"?>
<!-- Generator: Adobe Illustrator 25.3.1, SVG Export Plug-In . SVG Version: 6.00 Build 0)  -->
<svg version="1.1" id="Layer_1" xmlns="http://www.w3.org/2000/svg" xmlns:xlink="http://www.w3.org/1999/xlink" x="0px" y="0px"
	 viewBox="0 0 255 155" style="enable-background:new 0 0 255 155;" xml:space="preserve">
<style type="text/css">
	.st0{fill:url(#SVGID_1_);}
	.st1{fill:url(#SVGID_2_);}
	.st2{opacity:0.49;fill:url(#SVGID_3_);enable-background:new    ;}
	.st3{fill:url(#SVGID_4_);}
	.st4{fill:url(#SVGID_5_);}
	.st5{fill:url(#SVGID_6_);}
	.st6{fill:#2C75B5;}
</style>
<g>
	<g>
		<g>
			
				<linearGradient id="SVGID_1_" gradientUnits="userSpaceOnUse" x1="145.5868" y1="89.3224" x2="145.5868" y2="198.5906" gradientTransform="matrix(0.8553 -0.5181 -0.5181 -0.8553 0.3791 266.9069)">
				<stop  offset="0" style="stop-color:#2075BC"/>
				<stop  offset="1" style="stop-color:#42C4D9"/>
			</linearGradient>
			<path class="st0" d="M13.96,26.5l64.29,35.13c6.11,3.34,9.94,9.7,10.04,16.66l0.31,22.1c0.07,5.31-2.67,10.26-7.22,13.02
				l-24.14,14.62c-12.81,7.76-5.56-22.96,6.95-31.2c0.32-0.21,5.14-3.14,5.14-3.14l-15.82-8.95C32.56,72.89,17.86,52.21,14.23,28.41
				C14.13,27.78,14.05,27.15,13.96,26.5z"/>
			
				<linearGradient id="SVGID_2_" gradientUnits="userSpaceOnUse" x1="120.5894" y1="100.8741" x2="154.9988" y2="100.8741" gradientTransform="matrix(0.8553 -0.5181 -0.5181 -0.8553 0.3791 266.9069)">
				<stop  offset="0" style="stop-color:#29AAE1"/>
				<stop  offset="1" style="stop-color:#2B3C90"/>
			</linearGradient>
			<path class="st1" d="M69.34,93.69c0.89,0.5,6.29,3.55,6.29,3.55s17.77,8.9,0.19,19.54l-18.58,11.25
				c-1.95-4.16-5.55-22.97,6.96-31.21C64.51,96.62,69.34,93.69,69.34,93.69"/>
			
				<linearGradient id="SVGID_3_" gradientUnits="userSpaceOnUse" x1="104.4017" y1="108.3785" x2="104.4017" y2="184.8193" gradientTransform="matrix(1 2.000000e-03 2.000000e-03 -1 -53.4158 211.1853)">
				<stop  offset="0" style="stop-color:#1E429B;stop-opacity:0"/>
				<stop  offset="0.0885" style="stop-color:#4357A6;stop-opacity:0.0885"/>
				<stop  offset="0.2261" style="stop-color:#6F76B8;stop-opacity:0.2261"/>
				<stop  offset="0.3644" style="stop-color:#9396CA;stop-opacity:0.3644"/>
				<stop  offset="0.5004" style="stop-color:#B5B7DC;stop-opacity:0.5004"/>
				<stop  offset="0.6335" style="stop-color:#D2D3EA;stop-opacity:0.6335"/>
				<stop  offset="0.7629" style="stop-color:#E9E9F5;stop-opacity:0.7629"/>
				<stop  offset="0.8869" style="stop-color:#F7F7FB;stop-opacity:0.8869"/>
				<stop  offset="1" style="stop-color:#FFFFFF"/>
			</linearGradient>
			<path class="st2" d="M18.65,44.81l59.57,32.55c6.11,3.34,9.94,9.7,10.04,16.66l0.13,9.07c0.15-0.89,0.23-1.79,0.21-2.7
				l-0.31-22.1c-0.1-6.96-3.93-13.32-10.04-16.66L13.96,26.5c0.09,0.65,0.17,1.28,0.27,1.91C15.1,34.08,16.6,39.57,18.65,44.81z"/>
			
				<linearGradient id="SVGID_4_" gradientUnits="userSpaceOnUse" x1="109.4636" y1="149.7131" x2="109.2501" y2="95.2724" gradientTransform="matrix(1 -1.900000e-03 -1.900000e-03 -1 -53.3416 211.842)">
				<stop  offset="0" style="stop-color:#69A4D9"/>
				<stop  offset="1" style="stop-color:#2482C5"/>
			</linearGradient>
			<path class="st3" d="M77.34,115.98c0,0,0.28-0.17,0.77-0.55c0.49-0.37,1.19-0.95,2.01-1.76c0.8-0.82,1.72-1.89,2.42-3.3
				c0.69-1.41,1.06-3.24,0.49-5.07c-0.28-0.9-0.75-1.8-1.39-2.61c-0.64-0.82-1.39-1.59-2.27-2.28c-0.85-0.72-1.81-1.35-2.81-1.97
				c-1-0.57-2.09-1.16-3.16-1.77c-4.32-2.4-8.94-4.96-13.55-7.53c-2.29-1.3-4.58-2.6-6.84-3.87c-2.3-1.29-4.44-2.7-6.46-4.15
				c-2.02-1.45-3.89-2.96-5.61-4.45c-0.86-0.75-1.67-1.5-2.47-2.22c-0.77-0.75-1.52-1.46-2.22-2.16c-0.69-0.72-1.35-1.4-1.98-2.05
				c-0.6-0.68-1.17-1.32-1.7-1.93c-0.54-0.6-1.01-1.19-1.45-1.73s-0.84-1.04-1.2-1.49c-0.7-0.92-1.22-1.66-1.59-2.16
				c-0.36-0.5-0.56-0.77-0.56-0.77s0.84,1.02,2.3,2.81c0.38,0.43,0.8,0.91,1.26,1.43c0.46,0.52,0.95,1.09,1.51,1.66
				c0.56,0.58,1.15,1.19,1.77,1.84c0.64,0.63,1.32,1.29,2.02,1.98c0.72,0.68,1.48,1.36,2.26,2.08c0.8,0.69,1.63,1.42,2.5,2.14
				c1.75,1.43,3.64,2.87,5.64,4.3c2.01,1.42,4.16,2.8,6.4,4.03c2.27,1.26,4.58,2.54,6.9,3.83c4.59,2.6,9.18,5.21,13.48,7.65
				c1.08,0.62,2.13,1.18,3.17,1.83c1.01,0.66,1.98,1.34,2.85,2.11c0.89,0.74,1.66,1.58,2.31,2.46c0.66,0.88,1.14,1.85,1.42,2.84
				c0.27,0.99,0.32,2,0.17,2.92s-0.47,1.75-0.86,2.47c-0.79,1.44-1.77,2.48-2.62,3.27c-0.85,0.79-1.6,1.32-2.11,1.67
				C77.63,115.82,77.34,115.98,77.34,115.98z"/>
		</g>
	</g>
</g>
<linearGradient id="SVGID_5_" gradientUnits="userSpaceOnUse" x1="56.7703" y1="26.742" x2="56.7703" y2="58.38" gradientTransform="matrix(1 0 0 -1 0 156)">
	<stop  offset="0" style="stop-color:#2075BC"/>
	<stop  offset="1" style="stop-color:#42C4D9"/>
</linearGradient>
<path class="st4" d="M63.02,97.62c0,0-12.32,8.11-5.79,30.41c0,0-8.32,5.74-6.43-7.6C50.81,120.44,52.89,106.22,63.02,97.62z"/>
<linearGradient id="SVGID_6_" gradientUnits="userSpaceOnUse" x1="55.1396" y1="43.175" x2="63.02" y2="43.175" gradientTransform="matrix(1 0 0 -1 0 156)">
	<stop  offset="0" style="stop-color:#69A4D9"/>
	<stop  offset="1" style="stop-color:#47A6DD"/>
</linearGradient>
<path class="st5" d="M63.02,97.62c0,0-12.78,8.73-5.79,30.41C57.24,128.03,51.41,108.25,63.02,97.62z"/>
<g>
	<path class="st6" d="M140.95,101.58h-4.56v-4.84h-0.11c-2.11,3.67-5.38,5.51-9.79,5.51c-3.58,0-6.44-1.28-8.58-3.83
		S114.7,92.4,114.7,88c0-4.71,1.19-8.48,3.56-11.32c2.37-2.84,5.54-4.26,9.48-4.26c3.91,0,6.76,1.54,8.54,4.62h0.11V59.42h4.56
		L140.95,101.58L140.95,101.58z M136.39,88.7v-4.2c0-2.3-0.76-4.25-2.28-5.84s-3.45-2.39-5.79-2.39c-2.78,0-4.97,1.02-6.56,3.06
		c-1.6,2.04-2.39,4.86-2.39,8.46c0,3.28,0.76,5.87,2.29,7.77s3.58,2.85,6.16,2.85c2.54,0,4.6-0.92,6.19-2.75
		S136.39,91.5,136.39,88.7z"/>
	<path class="st6" d="M164.54,102.25c-4.21,0-7.57-1.33-10.08-3.99c-2.51-2.66-3.77-6.19-3.77-10.58c0-4.78,1.31-8.52,3.92-11.21
		s6.15-4.03,10.6-4.03c4.25,0,7.56,1.31,9.94,3.92s3.57,6.24,3.57,10.88c0,4.54-1.28,8.18-3.85,10.92S168.86,102.25,164.54,102.25z
		 M164.88,76.27c-2.93,0-5.25,1-6.95,2.99c-1.71,1.99-2.56,4.74-2.56,8.25c0,3.37,0.86,6.04,2.59,7.98
		c1.72,1.95,4.03,2.92,6.92,2.92c2.95,0,5.21-0.95,6.8-2.86c1.58-1.91,2.38-4.63,2.38-8.15c0-3.56-0.79-6.3-2.38-8.23
		C170.09,77.23,167.82,76.27,164.88,76.27z"/>
	<path class="st6" d="M207.88,100.27c-2.19,1.32-4.78,1.98-7.79,1.98c-4.06,0-7.34-1.32-9.83-3.96s-3.74-6.07-3.74-10.28
		c0-4.69,1.34-8.46,4.03-11.31s6.28-4.27,10.76-4.27c2.5,0,4.71,0.46,6.62,1.39v4.67c-2.11-1.48-4.38-2.23-6.79-2.23
		c-2.91,0-5.3,1.04-7.16,3.13s-2.79,4.83-2.79,8.22c0,3.34,0.88,5.97,2.63,7.9s4.1,2.89,7.05,2.89c2.48,0,4.82-0.82,7.01-2.48
		V100.27z"/>
	<path class="st6" d="M240.86,101.58h-6.4L221.9,87.9h-0.11v13.68h-4.56V59.42h4.56v26.73h0.11l11.96-13.04h5.98l-13.21,13.74
		L240.86,101.58z"/>
</g>
</svg>
